<svg xmlns="http://www.w3.org/2000/svg" width="20" height="16" viewBox="0 0 20 16">
    <g fill="none" fill-rule="evenodd">
        <path fill="#FFF" d="M4.259 3c.074 0 .117.075.093.136l-.023.035L3.5 4H3v8.5c0 .245.177.45.41.492L3.5 13h13c.245 0 .45-.177.492-.41L17 12.5v-8c0-.245-.177-.45-.41-.492L16.5 4h-1.4c-.041 0-.077-.025-.092-.061L15 3.9v-.8c0-.041.025-.077.061-.092L15.1 3H17c.514 0 .936.386.993.883L18 4v9c0 .514-.385.936-.883.993L17 14H3c-.513 0-.935-.385-.993-.883L2 13V4c0-.513.386-.935.883-.993L3 3h1.259zm2.55-.962c.122-.05.26-.05.381 0 .041.017.08.04.114.066l.05.042 2.5 2.5c.195.196.195.513 0 .708-.174.173-.444.192-.638.057l-.07-.057L7.5 3.707v5.294c0 .276-.222.5-.5.5-.245 0-.45-.177-.491-.41L6.5 9V3.708L4.854 5.353c-.196.194-.513.194-.708 0-.173-.174-.192-.444-.057-.638l.057-.07 2.5-2.5c.046-.046.103-.083.163-.107zM13 2.002c.247 0 .45.176.492.41l.008.09v5.292l1.647-1.647c.195-.194.512-.194.707 0 .174.174.193.444.058.638l-.057.07-2.5 2.5c-.046.046-.102.082-.162.107-.041.017-.083.028-.125.034l-.07.005c-.065 0-.127-.014-.188-.04-.04-.016-.079-.038-.113-.064l-.05-.043-2.5-2.5c-.195-.194-.195-.511 0-.707.174-.173.444-.192.638-.057l.07.057L12.5 7.793V2.5c0-.277.223-.5.5-.5z" opacity=".8"/>
    </g>
</svg>
