<svg xmlns="http://www.w3.org/2000/svg" width="24" height="24" viewBox="0 0 24 24">
    <g fill="none" fill-rule="evenodd" opacity=".8">
        <path fill="#D8D8D8" fill-opacity="0" d="M0 0H24V24H0z"/>
        <path fill="#FFF" d="M13.548 18.483h-3.096c0 .839.693 1.517 1.548 1.517.856 0 1.548-.678 1.548-1.517M12 4c-.684 0-1.237.541-1.237 1.211v.548c-2.364.549-4.114 2.621-4.114 5.098v4.434L5 16.906v.807h14v-.807l-1.648-1.615v-4.434c0-2.477-1.75-4.549-4.115-5.098v-.548C13.237 4.541 12.685 4 12 4m0 .77c.257 0 .467.197.467.441V6.371l.596.138c2.072.481 3.518 2.269 3.518 4.348v4.758l.232.226 1.126 1.103H6.062l1.126-1.103.231-.226v-4.758c0-2.079 1.447-3.867 3.519-4.348l.595-.138V5.211c0-.244.21-.441.467-.441"/>
    </g>
</svg>
