<svg xmlns="http://www.w3.org/2000/svg" width="24" height="24" viewBox="0 0 24 24">
    <g fill="none" fill-rule="evenodd">
        <rect width="24" height="24" fill="#29ABE2" fill-opacity="0" rx="2"/>
        <path fill="#FFF" d="M10.906 16.318h1.646v-1.646h-1.646v1.646zm1.494-2.214h-1.494a32.197 32.197 0 0 1-.006-.393c0-.484.08-.883.241-1.195.16-.313.48-.664.961-1.055.48-.391.767-.647.861-.768.144-.191.217-.402.217-.632 0-.321-.128-.595-.384-.824-.256-.228-.601-.342-1.034-.342-.418 0-.768.119-1.049.357-.281.238-.475.602-.58 1.09l-1.512-.188c.043-.699.341-1.293.894-1.781.552-.488 1.278-.732 2.176-.732.946 0 1.698.247 2.256.741.559.494.838 1.069.838 1.725a1.9 1.9 0 0 1-.307 1.032c-.206.324-.644.765-1.316 1.324-.348.289-.563.521-.647.697-.084.176-.122.49-.115.944z"/>
        <path fill="#FFF" d="M12 5a7 7 0 1 0 0 14 7 7 0 0 0 0-14m0 1c3.309 0 6 2.691 6 6s-2.691 6-6 6-6-2.691-6-6 2.691-6 6-6"/>
    </g>
</svg>
