<svg xmlns="http://www.w3.org/2000/svg" width="24" height="24" viewBox="0 0 24 24">
    <g fill="none" fill-rule="evenodd">
        <rect width="24" height="24" fill="none" rx="2"/>
        <path fill="#FFF" d="M18.857 15.027h-1.965v-1.982H6.964v1.982H5v-3.46c0-.719.504-1.477.982-1.477h1.99v-.01h7.911v.01h1.992c.477 0 .982.758.982 1.476v3.461zM7.964 18.008h7.928v-3.964H7.964v3.964zm.008-8.918h7.911V6.125h-7.91V9.09zm9.903 0h-.992V5.125h-9.91V9.09h-.99C4.83 9.09 4 10.415 4 11.566v4.461h2.972V19h9.911v-2.973h2.974v-4.46c0-1.152-.83-2.477-1.982-2.477z"/>
    </g>
</svg>
