<svg xmlns="http://www.w3.org/2000/svg" width="24" height="24" viewBox="0 0 24 24">
    <g fill="none" fill-rule="evenodd">
        <rect width="24" height="24" fill="#29ABE2" fill-opacity="0" rx="2"/>
        <path fill="#FFF" d="M12.054 10.05c-1.075 0-1.95.875-1.95 1.95s.875 1.95 1.95 1.95 1.95-.875 1.95-1.95-.875-1.95-1.95-1.95zm0 4.9A2.953 2.953 0 0 1 9.104 12a2.953 2.953 0 0 1 2.95-2.95 2.953 2.953 0 0 1 2.95 2.95 2.953 2.953 0 0 1-2.95 2.95zm-1.268 3.55h2.536l.287-2.004.264-.108c.36-.147.71-.351 1.074-.622l.224-.17 1.877.754 1.27-2.198-1.594-1.248.035-.281c.025-.203.045-.406.045-.623 0-.217-.02-.42-.045-.623l-.035-.281 1.594-1.247-1.271-2.198-1.88.754-.225-.173a4.566 4.566 0 0 0-1.07-.62l-.263-.108-.287-2.004h-2.536l-.287 2.004-.264.108a4.787 4.787 0 0 0-1.072.623l-.225.169L7.06 7.65 5.79 9.849l1.593 1.246-.034.28a5.36 5.36 0 0 0-.045.625c0 .21.02.42.045.625l.034.28-1.593 1.247 1.272 2.198 1.88-.755.226.175c.333.257.693.465 1.067.618l.264.108.287 2.004zm2.668 1h-2.8a.844.844 0 0 1-.84-.73l-.225-1.574a5.662 5.662 0 0 1-.798-.463l-1.485.596a.858.858 0 0 1-1.053-.38L4.86 14.54a.855.855 0 0 1 .206-1.09l1.26-.986A5.478 5.478 0 0 1 6.304 12c0-.155.009-.31.022-.463l-1.257-.984a.841.841 0 0 1-.207-1.096L6.26 7.039a.84.84 0 0 1 1.04-.37l1.493.6c.265-.183.528-.336.796-.464l.227-1.582a.843.843 0 0 1 .839-.723h2.799c.428 0 .788.316.839.734l.226 1.57c.274.13.542.286.799.464l1.485-.597a.86.86 0 0 1 1.053.379l1.392 2.41a.853.853 0 0 1-.207 1.092l-1.258.985a5.366 5.366 0 0 1 0 .926l1.257.984a.852.852 0 0 1 .214 1.083l-1.405 2.43a.84.84 0 0 1-1.04.37l-1.494-.598a5.838 5.838 0 0 1-.796.464l-.227 1.582a.839.839 0 0 1-.838.722z"/>
    </g>
</svg>
