<svg xmlns="http://www.w3.org/2000/svg" width="24" height="24" viewBox="0 0 24 24">
    <g fill="none" fill-rule="evenodd">
        <path fill="#29ABE2" fill-opacity="0" d="M0 0h24v24H0z"/>
        <path fill="#FFF" d="M19.407 16.846h-5.53a5.182 5.182 0 0 0-.135-1.511c-.429-1.73-1.677-3.08-3.285-3.708l4.61-5.486a.398.398 0 0 0-.054-.566l-.72-.591a.4.4 0 0 0-.559.05L2.79 17.913a.4.4 0 0 0 .283.683h16.335a.4.4 0 0 0 .4-.4v-.95a.4.4 0 0 0-.4-.4zM9.422 12.86c1.394.352 2.514 1.424 2.864 2.836.094.378.117.764.091 1.149H6.073l3.35-3.985z"/>
    </g>
</svg>
