<svg xmlns="http://www.w3.org/2000/svg" width="24" height="24" viewBox="0 0 24 24">
    <g fill="none" fill-rule="evenodd">
        <path fill="none" d="M0 0h24v24H0z"/>
        <path fill="#FFF" d="M15.645 18.11h1.933l-.968-2.395-.965 2.394zm2.155.551h-2.383l-.534 1.34h-.773l2.172-5.12h.655l2.176 5.12h-.77l-.543-1.34zM19.828 20.001h.723V14.6h-.723zM21.769 20.001h.723V14.6h-.723zM10.5 17.45L5.551 12.5l7.363-7.364 4.949 4.95L10.5 17.45zm8.425-7.718l-5.657-5.657a.5.5 0 0 0-.707 0L4.136 12.5l-.707.707a.999.999 0 0 0 0 1.414l4.95 4.95a1 1 0 0 0 1.414 0l1.414-1.415 7.718-7.717a.5.5 0 0 0 0-.707z"/>
    </g>
</svg>
